<?xml version="1.0" encoding="utf-8"?>
<!-- Generator: Adobe Illustrator 16.0.0, SVG Export Plug-In . SVG Version: 6.00 Build 0)  -->
<!DOCTYPE svg PUBLIC "-//W3C//DTD SVG 1.1//EN" "http://www.w3.org/Graphics/SVG/1.1/DTD/svg11.dtd">
<svg version="1.1"
	 id="svg6" xmlns:inkscape="http://www.inkscape.org/namespaces/inkscape" xmlns:sodipodi="http://sodipodi.sourceforge.net/DTD/sodipodi-0.dtd" xmlns:svg="http://www.w3.org/2000/svg" xmlns:rdf="http://www.w3.org/1999/02/22-rdf-syntax-ns#" xmlns:cc="http://creativecommons.org/ns#" xmlns:dc="http://purl.org/dc/elements/1.1/" inkscape:version="1.1 (c4e8f9ed74, 2021-05-24)" sodipodi:docname="folder-repositories-symbolic.svg"
	 xmlns="http://www.w3.org/2000/svg" xmlns:xlink="http://www.w3.org/1999/xlink" x="0px" y="0px" width="16px" height="16px"
	 viewBox="0 0 16 16" enable-background="new 0 0 16 16" xml:space="preserve">
<sodipodi:namedview  showguides="true" inkscape:cy="5.921875" inkscape:cx="5.078125" inkscape:zoom="32" showgrid="false" guidetolerance="10" gridtolerance="10" objecttolerance="10" borderopacity="1" pagecolor="#ffffff" bordercolor="#666666" id="namedview8" inkscape:pagecheckerboard="0" inkscape:guide-bbox="true" inkscape:current-layer="svg6" inkscape:window-maximized="0" inkscape:window-y="23" inkscape:window-x="414" inkscape:window-height="986" inkscape:window-width="1402" inkscape:pageshadow="2" inkscape:pageopacity="0">
	<sodipodi:guide  inkscape:locked="false" orientation="1,0" position="12.0328,11.002102" id="guide816"></sodipodi:guide>
	<sodipodi:guide  inkscape:locked="false" orientation="1,0" position="3.955004,8.4852814" id="guide818"></sodipodi:guide>
	<sodipodi:guide  inkscape:locked="false" orientation="0,1" position="12.0328,5.99519" id="guide820"></sodipodi:guide>
</sodipodi:namedview>
<path id="path8" fill="#444444" d="M15.206,7.833l-6.54-6.539c-0.376-0.376-0.987-0.376-1.364,0L5.945,2.653l1.722,1.722
	C8.068,4.24,8.527,4.33,8.846,4.65c0.32,0.321,0.41,0.784,0.273,1.186l1.659,1.66c0.402-0.138,0.864-0.05,1.187,0.271
	c0.447,0.449,0.447,1.176,0,1.623c-0.449,0.447-1.176,0.448-1.623,0C10.004,9.053,9.92,8.557,10.09,8.143L8.543,6.594v4.073
	c0.109,0.055,0.211,0.126,0.303,0.218c0.449,0.449,0.449,1.176,0,1.623c-0.448,0.447-1.175,0.449-1.623,0
	c-0.449-0.449-0.449-1.176,0-1.623c0.111-0.111,0.239-0.193,0.375-0.25V6.523c-0.137-0.056-0.265-0.139-0.375-0.25
	C6.884,5.933,6.801,5.435,6.977,5.018L5.278,3.319L0.794,7.803c-0.376,0.375-0.376,0.988,0,1.364l6.539,6.539
	c0.376,0.376,0.987,0.376,1.364,0l6.509-6.508C15.582,8.822,15.582,8.211,15.206,7.833"/>
</svg>
