<?xml version="1.0" encoding="utf-8"?>
<!-- Generator: Adobe Illustrator 16.0.0, SVG Export Plug-In . SVG Version: 6.00 Build 0)  -->
<!DOCTYPE svg PUBLIC "-//W3C//DTD SVG 1.1//EN" "http://www.w3.org/Graphics/SVG/1.1/DTD/svg11.dtd">
<svg version="1.1" id="Layer_1" xmlns="http://www.w3.org/2000/svg" xmlns:xlink="http://www.w3.org/1999/xlink" x="0px" y="0px"
	 width="32px" height="32px" viewBox="0 0 32 32" enable-background="new 0 0 32 32" xml:space="preserve">
<path fill="#5865F2" d="M6,2h20c1.656,0,3,1.343,3,3v20c0,1.656-1.344,3-3,3H6c-1.657,0-3-1.344-3-3V5C3,3.343,4.343,2,6,2z"/>
<path opacity="0.2" enable-background="new    " d="M3,25v1c0,1.662,1.338,3,3,3h20l3,3v-1l-3-3H6C4.338,28,3,26.662,3,25z"/>
<path fill="#5865F2" d="M29,31l-7-7h7V31z"/>
<path opacity="0.2" fill="#FFFFFF" enable-background="new    " d="M6,2C4.338,2,3,3.338,3,5v1c0-1.662,1.338-3,3-3h20
	c1.662,0,3,1.338,3,3V5c0-1.662-1.338-3-3-3H6z"/>
<path opacity="0.2" enable-background="new    " d="M22,25l7,7v-1l-6-6H22z"/>
<path id="path815_1_" inkscape:connector-curvature="0" opacity="0.2" enable-background="new    " d="M22.17,10.117
	c-1.15-0.533-2.381-0.921-3.667-1.141c-0.158,0.282-0.343,0.663-0.47,0.966c-1.367-0.203-2.722-0.203-4.064,0
	c-0.127-0.303-0.316-0.684-0.476-0.966c-1.288,0.22-2.52,0.61-3.67,1.144c-2.32,3.474-2.949,6.863-2.635,10.203
	c1.54,1.139,3.031,1.83,4.498,2.283c0.362-0.494,0.685-1.02,0.963-1.572c-0.53-0.199-1.038-0.445-1.517-0.73
	c0.127-0.094,0.251-0.191,0.372-0.293c2.925,1.355,6.104,1.355,8.993,0c0.121,0.102,0.245,0.199,0.372,0.293
	c-0.48,0.287-0.991,0.533-1.521,0.732c0.277,0.551,0.6,1.078,0.963,1.572c1.469-0.453,2.961-1.145,4.5-2.285
	C25.182,16.45,24.182,13.093,22.17,10.117z M13.047,18.268c-0.877,0-1.598-0.813-1.598-1.801c0-0.988,0.705-1.802,1.598-1.802
	c0.894,0,1.614,0.812,1.598,1.802C14.647,17.455,13.941,18.268,13.047,18.268z M18.953,18.268c-0.878,0-1.598-0.813-1.598-1.801
	c0-0.988,0.704-1.802,1.598-1.802s1.613,0.812,1.598,1.802C20.551,17.455,19.847,18.268,18.953,18.268z"/>
<path id="path815" inkscape:connector-curvature="0" fill="#FFFFFF" d="M22.17,9.141C21.02,8.608,19.789,8.22,18.503,8
	c-0.158,0.282-0.343,0.663-0.47,0.966c-1.367-0.203-2.722-0.203-4.064,0C13.842,8.663,13.653,8.282,13.494,8
	c-1.288,0.22-2.52,0.61-3.67,1.144c-2.32,3.474-2.949,6.862-2.635,10.202c1.54,1.139,3.031,1.83,4.498,2.283
	c0.362-0.494,0.685-1.02,0.963-1.572c-0.53-0.199-1.038-0.445-1.517-0.73c0.127-0.094,0.251-0.191,0.372-0.293
	c2.925,1.355,6.104,1.355,8.993,0c0.121,0.102,0.245,0.199,0.372,0.293c-0.48,0.287-0.991,0.533-1.521,0.732
	c0.277,0.551,0.6,1.078,0.963,1.572c1.469-0.453,2.961-1.145,4.5-2.285C25.182,15.474,24.182,12.118,22.17,9.141z M13.047,17.291
	c-0.877,0-1.598-0.812-1.598-1.8c0-0.989,0.705-1.802,1.598-1.802c0.894,0,1.614,0.812,1.598,1.802
	C14.647,16.479,13.941,17.291,13.047,17.291z M18.953,17.291c-0.878,0-1.598-0.812-1.598-1.8c0-0.989,0.704-1.802,1.598-1.802
	s1.613,0.812,1.598,1.802C20.551,16.479,19.847,17.291,18.953,17.291z"/>
</svg>
