<?xml version="1.0" encoding="utf-8"?>
<!-- Generator: Adobe Illustrator 16.0.0, SVG Export Plug-In . SVG Version: 6.00 Build 0)  -->
<!DOCTYPE svg PUBLIC "-//W3C//DTD SVG 1.0//EN" "http://www.w3.org/TR/2001/REC-SVG-20010904/DTD/svg10.dtd">
<svg version="1.0"
	 id="svg97" sodipodi:docname="application-vnd.android.package-archive.svg" inkscape:version="0.92.5 (2060ec1f9f, 2020-04-08)" xmlns:dc="http://purl.org/dc/elements/1.1/" xmlns:cc="http://creativecommons.org/ns#" xmlns:rdf="http://www.w3.org/1999/02/22-rdf-syntax-ns#" xmlns:svg="http://www.w3.org/2000/svg" xmlns:sodipodi="http://sodipodi.sourceforge.net/DTD/sodipodi-0.dtd" xmlns:inkscape="http://www.inkscape.org/namespaces/inkscape"
	 xmlns="http://www.w3.org/2000/svg" xmlns:xlink="http://www.w3.org/1999/xlink" x="0px" y="0px" width="32px" height="32px"
	 viewBox="0 0 32 32" enable-background="new 0 0 32 32" xml:space="preserve">
<sodipodi:namedview  inkscape:pageopacity="0" inkscape:pageshadow="2" inkscape:window-width="1920" inkscape:window-height="1021" inkscape:window-x="0" inkscape:window-y="25" inkscape:window-maximized="1" inkscape:current-layer="g95" id="namedview99" objecttolerance="10" borderopacity="1" bordercolor="#666666" pagecolor="#ffffff" gridtolerance="10" guidetolerance="10" showgrid="false" inkscape:zoom="19.666667" inkscape:cx="10.35745" inkscape:cy="19.797312">
	</sodipodi:namedview>
<title  id="title2">elementary Icon Template</title>
<g id="g95" transform="translate(-128,-179)">
	<path id="path83-5" inkscape:connector-curvature="0" opacity="0.2" enable-background="new    " d="M133.765,183.02h20.142
		c1.176,0,1.704-0.207,2.043,0.722l2.05,5.773v18.527c0,1.121,0.07,0.949-1.105,0.949h-25.787c-1.176,0-1.105,0.172-1.105-0.949
		v-18.527l2.05-5.773C132.378,182.832,132.589,183.02,133.765,183.02z"/>
	
		<linearGradient id="path83_1_" gradientUnits="userSpaceOnUse" x1="342.8633" y1="735.5771" x2="342.8747" y2="758.0981" gradientTransform="matrix(0.8755 0 0 1.1237 -156.181 -643.8014)">
		<stop  offset="0" style="stop-color:#C7AE8E"/>
		<stop  offset="0.2306" style="stop-color:#C7AE8E"/>
		<stop  offset="0.2306" style="stop-color:#DAC197"/>
		<stop  offset="1" style="stop-color:#DAC197"/>
	</linearGradient>
	<path id="path83" inkscape:connector-curvature="0" fill="url(#path83_1_)" d="M133.765,182.02h20.142
		c1.176,0,1.704-0.207,2.043,0.722l2.05,5.773v18.527c0,1.121,0.07,0.949-1.105,0.949h-25.787c-1.176,0-1.105,0.172-1.105-0.949
		v-18.527l2.05-5.773C132.378,181.832,132.589,182.02,133.765,182.02z"/>
	
		<linearGradient id="path87_1_" gradientUnits="userSpaceOnUse" x1="504.4863" y1="1002.7988" x2="504.4863" y2="988.7979" gradientTransform="matrix(0.7 0 0 0.8245 -209.1404 -633.2509)">
		<stop  offset="0" style="stop-color:#FFFFFF"/>
		<stop  offset="0.302" style="stop-color:#FFFFFF"/>
		<stop  offset="0.344" style="stop-color:#FFFFFF;stop-opacity:0.643"/>
		<stop  offset="1" style="stop-color:#FFFFFF;stop-opacity:0.391"/>
	</linearGradient>
	<path id="path87" inkscape:connector-curvature="0" opacity="0.3" fill="url(#path87_1_)" enable-background="new    " d="
		M142.6,182.012h2.8v11.543c-0.276,0-0.551-0.636-0.827-0.636c-0.282,0-0.564,0.636-0.847,0.636c-0.227,0-0.454-0.557-0.681-0.557
		c-0.148,0-0.297,0.557-0.445,0.557V182.012z"/>
	<g>
		<path fill="#FDFEFB" d="M149.906,201.077c-0.203,0.003,0.039,0.105,0.306,0.146c0.074-0.059,0.141-0.116,0.201-0.173
			C150.245,201.091,150.076,201.093,149.906,201.077"/>
		<path fill="#FDFEFB" d="M151.004,200.804c0.121-0.169,0.21-0.353,0.24-0.543c-0.027,0.137-0.101,0.253-0.169,0.377
			c-0.382,0.24-0.037-0.143-0.001-0.288C150.664,200.866,151.019,200.658,151.004,200.804"/>
		<path fill="#FDFEFB" d="M151.408,199.751c0.023-0.369-0.072-0.252-0.105-0.111C151.341,199.66,151.372,199.898,151.408,199.751"/>
		<path fill="#FDFEFB" d="M149.132,194.722c0.109,0.02,0.236,0.035,0.218,0.061C149.469,194.757,149.496,194.732,149.132,194.722"/>
		<path fill="#FDFEFB" d="M149.35,194.783l-0.077,0.016l0.072-0.006L149.35,194.783"/>
		<path fill="#FDFEFB" d="M152.75,199.89c0.011,0.331-0.098,0.491-0.195,0.773l-0.177,0.09c-0.145,0.279,0.014,0.178-0.089,0.401
			c-0.227,0.2-0.685,0.628-0.832,0.666c-0.106-0.003,0.073-0.126,0.097-0.175c-0.303,0.207-0.243,0.312-0.705,0.437l-0.013-0.03
			c-1.14,0.536-2.721-0.524-2.701-1.974c-0.011,0.092-0.033,0.069-0.059,0.105c-0.059-0.745,0.345-1.493,1.023-1.8
			c0.665-0.329,1.445-0.193,1.921,0.25c-0.262-0.343-0.781-0.705-1.399-0.672c-0.604,0.009-1.169,0.394-1.358,0.811
			c-0.311,0.194-0.346,0.751-0.48,0.854c-0.182,1.334,0.342,1.911,1.227,2.589c0.139,0.094,0.039,0.108,0.058,0.179
			c-0.294-0.138-0.563-0.345-0.784-0.6c0.116,0.173,0.244,0.34,0.408,0.471c-0.277-0.093-0.647-0.671-0.756-0.694
			c0.479,0.854,1.938,1.5,2.703,1.18c-0.354,0.013-0.804,0.007-1.201-0.14c-0.166-0.086-0.394-0.264-0.354-0.297
			c1.044,0.39,2.122,0.295,3.025-0.43c0.23-0.178,0.48-0.483,0.553-0.486c-0.108,0.164,0.02,0.077-0.065,0.223
			c0.229-0.369-0.099-0.15,0.237-0.638l0.124,0.172c-0.046-0.307,0.38-0.68,0.338-1.164c0.098-0.147,0.108,0.16,0.005,0.501
			c0.145-0.379,0.037-0.438,0.074-0.751c0.041,0.104,0.094,0.216,0.12,0.326c-0.094-0.366,0.097-0.615,0.145-0.827
			c-0.047-0.021-0.146,0.161-0.168-0.271c0.003-0.188,0.052-0.098,0.07-0.145c-0.036-0.021-0.133-0.165-0.191-0.441
			c0.042-0.064,0.114,0.169,0.171,0.178c-0.036-0.219-0.102-0.386-0.104-0.555c-0.169-0.354-0.06,0.048-0.197-0.151
			c-0.181-0.563,0.149-0.131,0.172-0.386c0.273,0.396,0.429,1.01,0.501,1.263c-0.055-0.31-0.144-0.609-0.251-0.899
			c0.083,0.034-0.133-0.639,0.107-0.193c-0.257-0.948-1.104-1.836-1.883-2.252c0.097,0.087,0.216,0.197,0.172,0.213
			c-0.387-0.23-0.318-0.248-0.374-0.345c-0.315-0.128-0.336,0.01-0.545,0c-0.595-0.315-0.709-0.282-1.257-0.479l0.024,0.116
			c-0.394-0.131-0.457,0.05-0.883,0c-0.026-0.02,0.136-0.073,0.27-0.092c-0.381,0.05-0.363-0.075-0.736,0.013
			c0.093-0.064,0.188-0.106,0.287-0.162c-0.31,0.019-0.741,0.181-0.607,0.034c-0.507,0.226-1.407,0.543-1.912,1.017l-0.016-0.105
			c-0.231,0.277-1.009,0.828-1.07,1.188l-0.063,0.014c-0.12,0.204-0.198,0.436-0.294,0.645c-0.157,0.27-0.23,0.104-0.208,0.146
			c-0.31,0.627-0.463,1.155-0.596,1.588c0.094,0.142,0.002,0.852,0.037,1.421c-0.155,2.809,1.971,5.535,4.296,6.165
			c0.341,0.121,0.848,0.117,1.279,0.129c-0.51-0.146-0.576-0.077-1.07-0.25c-0.357-0.168-0.437-0.36-0.688-0.58l0.1,0.177
			c-0.496-0.176-0.288-0.217-0.692-0.345l0.106-0.14c-0.16-0.012-0.426-0.271-0.498-0.414l-0.175,0.007
			c-0.212-0.262-0.325-0.449-0.318-0.595l-0.056,0.102c-0.064-0.111-0.777-0.979-0.407-0.776c-0.069-0.063-0.16-0.103-0.26-0.282
			l0.076-0.086c-0.179-0.229-0.329-0.523-0.317-0.621c0.095,0.128,0.16,0.152,0.226,0.174c-0.45-1.115-0.474-0.062-0.815-1.136
			l0.072-0.006c-0.056-0.084-0.089-0.174-0.133-0.263l0.031-0.313c-0.324-0.374-0.091-1.593-0.044-2.261
			c0.032-0.271,0.27-0.561,0.451-1.013l-0.11-0.02c0.21-0.368,1.204-1.477,1.663-1.419c0.223-0.28-0.043-0.002-0.088-0.072
			c0.489-0.507,0.644-0.358,0.974-0.448c0.355-0.212-0.307,0.082-0.138-0.081c0.616-0.157,0.437-0.357,1.24-0.437
			c0.085,0.047-0.197,0.073-0.269,0.137c0.514-0.251,1.624-0.194,2.345,0.139c0.836,0.392,1.776,1.546,1.814,2.635l0.042,0.01
			c-0.021,0.433,0.065,0.933-0.087,1.393L152.75,199.89"/>
		<path fill="#FDFEFB" d="M147.678,201.357l-0.029,0.144c0.134,0.182,0.241,0.38,0.412,0.521
			C147.937,201.782,147.846,201.683,147.678,201.357"/>
		<path fill="#FDFEFB" d="M147.994,201.345c-0.07-0.078-0.112-0.173-0.16-0.268c0.045,0.165,0.138,0.309,0.224,0.453
			L147.994,201.345"/>
		<path fill="#FDFEFB" d="M153.61,200.124l-0.03,0.075c-0.054,0.391-0.173,0.778-0.355,1.137
			C153.426,200.957,153.556,200.543,153.61,200.124"/>
		<path fill="#FDFEFB" d="M149.172,194.624c0.138-0.05,0.34-0.027,0.486-0.061c-0.189,0.017-0.38,0.026-0.568,0.05L149.172,194.624"
			/>
		<path fill="#FDFEFB" d="M144.323,197.203c0.032,0.295-0.222,0.408,0.057,0.215C144.528,197.083,144.321,197.325,144.323,197.203"
			/>
		<path fill="#FDFEFB" d="M143.997,198.566c0.064-0.197,0.076-0.314,0.1-0.429C143.92,198.364,144.016,198.412,143.997,198.566"/>
	</g>
</g>
</svg>
