<?xml version="1.0" encoding="utf-8"?>
<!-- Generator: Adobe Illustrator 16.0.0, SVG Export Plug-In . SVG Version: 6.00 Build 0)  -->
<!DOCTYPE svg PUBLIC "-//W3C//DTD SVG 1.1//EN" "http://www.w3.org/Graphics/SVG/1.1/DTD/svg11.dtd">
<svg version="1.1"
	 id="svg97" inkscape:version="0.92.5 (2060ec1f9f, 2020-04-08)" sodipodi:docname="application-zip.svg" xmlns:dc="http://purl.org/dc/elements/1.1/" xmlns:cc="http://creativecommons.org/ns#" xmlns:rdf="http://www.w3.org/1999/02/22-rdf-syntax-ns#" xmlns:svg="http://www.w3.org/2000/svg" xmlns:sodipodi="http://sodipodi.sourceforge.net/DTD/sodipodi-0.dtd" xmlns:inkscape="http://www.inkscape.org/namespaces/inkscape"
	 xmlns="http://www.w3.org/2000/svg" xmlns:xlink="http://www.w3.org/1999/xlink" x="0px" y="0px" width="32px" height="32px"
	 viewBox="0 0 32 32" enable-background="new 0 0 32 32" xml:space="preserve">
<sodipodi:namedview  inkscape:current-layer="g95" inkscape:window-maximized="1" inkscape:window-y="25" inkscape:window-x="0" inkscape:window-height="1021" inkscape:window-width="1920" inkscape:pageshadow="2" inkscape:pageopacity="0" inkscape:cy="13.102489" inkscape:cx="23.608446" inkscape:zoom="19.666667" showgrid="false" guidetolerance="10" gridtolerance="10" pagecolor="#ffffff" bordercolor="#666666" borderopacity="1" objecttolerance="10" id="namedview99">
	</sodipodi:namedview>
<title  id="title2">elementary Icon Template</title>
<g id="g95" transform="translate(-128,-179)">
	<path id="path83-5" inkscape:connector-curvature="0" opacity="0.2" enable-background="new    " d="M133.765,183.02h20.142
		c1.176,0,1.705-0.207,2.043,0.722l2.05,5.773v18.527c0,1.121,0.07,0.949-1.106,0.949h-25.786c-1.176,0-1.105,0.172-1.105-0.949
		v-18.527l2.05-5.773C132.378,182.832,132.589,183.02,133.765,183.02z"/>
	
		<linearGradient id="path83_1_" gradientUnits="userSpaceOnUse" x1="183.1426" y1="215.752" x2="183.154" y2="193.232" gradientTransform="matrix(0.8755 0 0 -1.1237 -16.3538 425.2069)">
		<stop  offset="0" style="stop-color:#C7AE8E"/>
		<stop  offset="0.2306" style="stop-color:#C7AE8E"/>
		<stop  offset="0.2306" style="stop-color:#DAC197"/>
		<stop  offset="1" style="stop-color:#DAC197"/>
	</linearGradient>
	<path id="path83" inkscape:connector-curvature="0" fill="url(#path83_1_)" d="M133.765,182.02h20.142
		c1.176,0,1.705-0.207,2.043,0.722l2.05,5.773v18.527c0,1.121,0.07,0.949-1.106,0.949h-25.786c-1.176,0-1.105,0.172-1.105-0.949
		v-18.527l2.05-5.773C132.378,181.832,132.589,182.02,133.765,182.02z"/>
	
		<linearGradient id="path87_1_" gradientUnits="userSpaceOnUse" x1="264.2432" y1="79.106" x2="264.2432" y2="93.106" gradientTransform="matrix(0.7 0 0 -0.8245 -40.97 258.7809)">
		<stop  offset="0" style="stop-color:#FFFFFF"/>
		<stop  offset="0.302" style="stop-color:#FFFFFF"/>
		<stop  offset="0.344" style="stop-color:#FFFFFF;stop-opacity:0.643"/>
		<stop  offset="1" style="stop-color:#FFFFFF;stop-opacity:0.391"/>
	</linearGradient>
	<path id="path87" inkscape:connector-curvature="0" opacity="0.3" fill="url(#path87_1_)" enable-background="new    " d="
		M142.6,182.012h2.8v11.543c-0.276,0-0.551-0.636-0.827-0.636c-0.282,0-0.564,0.636-0.847,0.636c-0.227,0-0.454-0.557-0.681-0.557
		c-0.148,0-0.297,0.557-0.445,0.557V182.012z"/>
	<rect id="rect7379" x="138" y="199" fill="#00DFDD" width="18" height="8"/>
	<path id="text924" d="M139.409,200v0.684h3.702l-3.794,4.697V206h4.899v-0.684h-3.886l3.793-4.697V200H139.409z M147.046,200
		c-0.639,0-1.139,0.148-1.504,0.445c-0.361,0.296-0.543,0.703-0.543,1.218c0,0.445,0.132,0.793,0.395,1.044
		c0.264,0.249,0.689,0.433,1.277,0.551l0.48,0.093c0.4,0.081,0.688,0.202,0.862,0.363c0.178,0.162,0.267,0.386,0.267,0.671
		c0,0.328-0.123,0.581-0.368,0.758c-0.244,0.178-0.593,0.266-1.042,0.266c-0.297,0-0.6-0.046-0.906-0.137
		c-0.307-0.092-0.621-0.226-0.941-0.406v0.813c0.334,0.123,0.655,0.215,0.965,0.277c0.313,0.063,0.607,0.094,0.883,0.094
		c0.731,0,1.286-0.146,1.663-0.437c0.382-0.292,0.57-0.72,0.57-1.285c0-0.475-0.141-0.853-0.421-1.133
		c-0.279-0.284-0.713-0.481-1.301-0.594l-0.477-0.097c-0.433-0.081-0.727-0.187-0.883-0.317c-0.154-0.132-0.23-0.328-0.23-0.586
		c0-0.307,0.115-0.543,0.348-0.71c0.234-0.167,0.566-0.251,0.996-0.251c0.247,0,0.503,0.035,0.77,0.105
		c0.266,0.071,0.547,0.178,0.848,0.321v-0.771c-0.297-0.098-0.588-0.172-0.872-0.222S147.319,200,147.046,200z M149.607,200.024
		v0.684h2.131v5.316h0.815v-5.316h2.13v-0.684H149.607z"/>
</g>
</svg>
