<?xml version="1.0" encoding="utf-8"?>
<!-- Generator: Adobe Illustrator 16.0.0, SVG Export Plug-In . SVG Version: 6.00 Build 0)  -->
<!DOCTYPE svg PUBLIC "-//W3C//DTD SVG 1.0//EN" "http://www.w3.org/TR/2001/REC-SVG-20010904/DTD/svg10.dtd">
<svg version="1.0"
	 id="svg2" sodipodi:docname="application-x-java.svg" inkscape:version="1.0 (4035a4fb49, 2020-05-01)" xmlns:dc="http://purl.org/dc/elements/1.1/" xmlns:cc="http://creativecommons.org/ns#" xmlns:rdf="http://www.w3.org/1999/02/22-rdf-syntax-ns#" xmlns:svg="http://www.w3.org/2000/svg" xmlns:sodipodi="http://sodipodi.sourceforge.net/DTD/sodipodi-0.dtd" xmlns:inkscape="http://www.inkscape.org/namespaces/inkscape"
	 xmlns="http://www.w3.org/2000/svg" xmlns:xlink="http://www.w3.org/1999/xlink" x="0px" y="0px" width="32px" height="32px"
	 viewBox="0 0 32 32" enable-background="new 0 0 32 32" xml:space="preserve">
<filter  height="1.0008914" width="1.00104" style="color-interpolation-filters:sRGB" inkscape:collect="always" id="filter1218" x="-0.00052002415" y="-0.00044569655">
	<feGaussianBlur  inkscape:collect="always" stdDeviation="0.0051997931" id="feGaussianBlur1220"></feGaussianBlur>
</filter>
<sodipodi:namedview  inkscape:pageshadow="2" inkscape:window-width="1920" inkscape:window-height="1003" inkscape:current-layer="svg2" inkscape:window-x="0" inkscape:document-rotation="0" inkscape:pageopacity="0" inkscape:window-y="0" inkscape:window-maximized="1" pagecolor="#ffffff" bordercolor="#666666" borderopacity="1" objecttolerance="10" gridtolerance="10" guidetolerance="10" showgrid="false" inkscape:zoom="20.85965" inkscape:cx="6.4418573" inkscape:cy="15.340611" id="namedview47">
	</sodipodi:namedview>
<g id="rect4897-1" opacity="0.2" filter="url(#filter1218)" enable-background="new    ">
	<rect x="4.001" y="2.752" width="23.998" height="28"/>
</g>
<rect id="rect4897" x="4" y="2" fill="#EEEEEE" width="24" height="28"/>
<path id="path3475" inkscape:connector-curvature="0" opacity="0.4" fill="none" stroke="#000000" stroke-width="0.4834" enable-background="new    " d="
	M8,6.242h1.507H8z M9.729,6.242h1.407H9.729z M11.357,6.242h1.246H11.357z M12.804,6.242h0.542H12.804z M13.568,6.242h1.206H13.568z
	 M15.015,6.242h3.176H15.015z M18.393,6.242h2.432H18.393z M21.025,6.242h0.744H21.025z M8,7.706h2.352H8z M10.613,7.706h1.125
	H10.613z M11.94,7.706h0.563H11.94z M12.724,7.706h1.025H12.724z M13.97,7.706h1.045H13.97z M15.216,7.706h1.668H15.216z
	 M17.105,7.706h2.171H17.105z M19.478,7.706h1.447H19.478z M21.125,7.706h0.362H21.125z M8,9.159h1.99H8z M10.191,9.159h3.256
	H10.191z M13.648,9.159h1.588H13.648z M15.437,9.159h1.488H15.437z M17.125,9.159h1.268H17.125z M18.593,9.159l1.99,0.021
	L18.593,9.159z M20.764,9.18H24H20.764z M8,10.633h2.754H8z M10.975,10.633h2.975H10.975z M14.151,10.633h1.186H14.151z
	 M15.538,10.633h2.794H15.538z M18.513,10.633h1.909H18.513z M20.643,10.633h0.765H20.643z M21.607,10.633h0.423H21.607z
	 M22.252,10.633h1.186H22.252z M8,12.097h1.025H8z M9.347,12.097h3.799H9.347z M8,14.536h1.507H8z M9.729,14.536h1.387H9.729z
	 M11.357,14.536h1.246H11.357z M12.804,14.536h0.542H12.804z M13.568,14.536h1.206H13.568z M15.015,14.536h3.156H15.015z
	 M18.393,14.536h2.412H18.393z M21.005,14.536h0.765H21.005z M21.97,14.536h1.81H21.97z M8,16h2.533H8z M10.734,16h2.713H10.734z
	 M13.648,16h1.045H13.648z M14.895,16h2.553H14.895z M17.648,16h3.216H17.648z M21.086,16h1.186H21.086z M8,17.464h2.754H8z
	 M10.975,17.464h2.975H10.975z M14.151,17.464h1.186H14.151z M15.538,17.464h2.794H15.538z M18.513,17.464h1.909H18.513z
	 M20.643,17.464h0.765H20.643z M21.607,17.464h0.423H21.607z M22.252,17.464h1.186H22.252z M8,18.928h2.352H8z M10.613,18.928h1.125
	H10.613z M11.94,18.928h0.563H11.94z M12.724,18.928h1.025H12.724z M13.97,18.928h1.045H13.97z M15.216,18.928h1.668H15.216z
	 M17.105,18.928h2.171H17.105z M19.478,18.928h1.447H19.478z M21.125,18.928h0.362H21.125z M8,21.357h1.99H8z M10.191,21.357h3.256
	H10.191z M13.648,21.357h1.588H13.648z M15.437,21.357h1.488H15.437z M17.125,21.357h1.268H17.125z M18.593,21.357l1.99,0.02
	L18.593,21.357z M20.764,21.377H24H20.764z M8,22.831h2.352H8z M10.613,22.831h1.125H10.613z M11.94,22.831h0.563H11.94z
	 M12.724,22.831h1.025H12.724z M13.97,22.831h1.045H13.97z M15.216,22.831h1.668H15.216z M17.105,22.831h2.171H17.105z
	 M19.478,22.831h1.447H19.478z M21.125,22.831h0.362H21.125z M8,24.295h2.493H8z M10.713,24.295h0.784H10.713z M11.699,24.295h1.789
	H11.699z M13.688,24.295h2.633H13.688z M16.543,24.295h1.789H16.543z M18.513,24.295h0.382H18.513z M19.096,24.295h2.271H19.096z
	 M21.607,24.295h1.187H21.607z M8,25.758h2.493H8z M10.713,25.758h1.126H10.713z M12.04,25.758h1.769H12.04z M14.01,25.758h1.909
	H14.01z M16.141,25.758h0.764H16.141z M17.105,25.758h0.422H17.105z M17.748,25.758h1.187H17.748z"/>
<rect id="rect7379" y="6" fill="#00D0B4" width="18" height="8"/>
<g id="text887_1_">
	<path d="M3.382,6.999h0.642v4.408c0,0.571-0.109,0.986-0.326,1.244s-0.565,0.387-1.045,0.387H2.408v-0.54h0.2
		c0.284,0,0.484-0.079,0.6-0.238c0.116-0.158,0.174-0.443,0.174-0.854V6.999z"/>
	<path d="M7.54,8.287v0.553c-0.165-0.085-0.337-0.148-0.515-0.19C6.848,8.606,6.664,8.585,6.474,8.585
		c-0.29,0-0.507,0.044-0.652,0.133s-0.218,0.223-0.218,0.4c0,0.135,0.052,0.242,0.156,0.319s0.312,0.151,0.625,0.22l0.2,0.045
		c0.415,0.089,0.709,0.214,0.884,0.376c0.175,0.162,0.262,0.388,0.262,0.678c0,0.33-0.131,0.591-0.392,0.784
		s-0.621,0.289-1.078,0.289c-0.19,0-0.389-0.018-0.595-0.055c-0.206-0.037-0.423-0.093-0.652-0.167v-0.604
		c0.216,0.112,0.428,0.196,0.638,0.252s0.417,0.084,0.622,0.084c0.275,0,0.487-0.047,0.635-0.142S7.13,10.972,7.13,10.8
		c0-0.158-0.053-0.28-0.16-0.365s-0.341-0.166-0.703-0.245l-0.203-0.047C5.702,10.067,5.441,9.951,5.28,9.793
		C5.119,9.635,5.039,9.419,5.039,9.144c0-0.334,0.118-0.593,0.355-0.774c0.237-0.182,0.573-0.273,1.009-0.273
		c0.216,0,0.419,0.016,0.609,0.048S7.379,8.223,7.54,8.287z"/>
	<path d="M10.038,8.096c0.508,0,0.906,0.165,1.196,0.495s0.435,0.787,0.435,1.371c0,0.582-0.145,1.039-0.435,1.37
		s-0.688,0.497-1.196,0.497c-0.51,0-0.91-0.166-1.198-0.497c-0.289-0.331-0.434-0.788-0.434-1.37c0-0.584,0.145-1.041,0.434-1.371
		C9.128,8.261,9.528,8.096,10.038,8.096z M10.038,8.591c-0.313,0-0.561,0.123-0.743,0.367c-0.182,0.245-0.272,0.58-0.272,1.004
		c0,0.426,0.09,0.76,0.271,1.005c0.181,0.244,0.429,0.366,0.745,0.366c0.311,0,0.557-0.123,0.739-0.368
		c0.182-0.245,0.273-0.58,0.273-1.003c0-0.421-0.091-0.754-0.273-1.001S10.349,8.591,10.038,8.591z"/>
	<path d="M15.592,9.591v2.146h-0.584V9.61c0-0.336-0.065-0.588-0.197-0.755s-0.328-0.251-0.59-0.251
		c-0.315,0-0.564,0.101-0.746,0.302c-0.182,0.201-0.272,0.475-0.272,0.822v2.009h-0.587V8.182h0.587v0.552
		c0.14-0.214,0.304-0.374,0.493-0.479c0.189-0.106,0.408-0.159,0.655-0.159c0.409,0,0.718,0.126,0.927,0.379
		C15.487,8.729,15.592,9.101,15.592,9.591z"/>
</g>
</svg>
