<?xml version="1.0" encoding="utf-8"?>
<!-- Generator: Adobe Illustrator 16.0.0, SVG Export Plug-In . SVG Version: 6.00 Build 0)  -->
<!DOCTYPE svg PUBLIC "-//W3C//DTD SVG 1.0//EN" "http://www.w3.org/TR/2001/REC-SVG-20010904/DTD/svg10.dtd">
<svg version="1.0"
	 id="svg97" sodipodi:docname="application-x-bzip-compressed-tar.svg" inkscape:version="1.0 (4035a4fb49, 2020-05-01)" xmlns:dc="http://purl.org/dc/elements/1.1/" xmlns:cc="http://creativecommons.org/ns#" xmlns:rdf="http://www.w3.org/1999/02/22-rdf-syntax-ns#" xmlns:svg="http://www.w3.org/2000/svg" xmlns:sodipodi="http://sodipodi.sourceforge.net/DTD/sodipodi-0.dtd" xmlns:inkscape="http://www.inkscape.org/namespaces/inkscape"
	 xmlns="http://www.w3.org/2000/svg" xmlns:xlink="http://www.w3.org/1999/xlink" x="0px" y="0px" width="32px" height="32px"
	 viewBox="0 0 32 32" enable-background="new 0 0 32 32" xml:space="preserve">
<sodipodi:namedview  inkscape:document-rotation="0" inkscape:pageopacity="0" inkscape:pageshadow="2" inkscape:window-width="1920" inkscape:window-height="1003" inkscape:window-x="0" inkscape:window-y="0" inkscape:window-maximized="1" inkscape:current-layer="g95" id="namedview99" objecttolerance="10" borderopacity="1" bordercolor="#666666" pagecolor="#ffffff" gridtolerance="10" guidetolerance="10" showgrid="false" inkscape:zoom="19.666667" inkscape:cx="24.508952" inkscape:cy="26.430104">
	</sodipodi:namedview>
<title  id="title2">elementary Icon Template</title>
<g id="g95" transform="translate(-128,-179)">
	<path id="path83-5" inkscape:connector-curvature="0" opacity="0.2" enable-background="new    " d="M133.765,183.02h20.142
		c1.176,0,1.705-0.207,2.043,0.722l2.05,5.773v18.527c0,1.121,0.07,0.949-1.106,0.949h-25.786c-1.176,0-1.105,0.172-1.105-0.949
		v-18.527l2.05-5.773C132.378,182.832,132.589,183.02,133.765,183.02z"/>
	
		<linearGradient id="path83_1_" gradientUnits="userSpaceOnUse" x1="183.1426" y1="215.752" x2="183.154" y2="193.232" gradientTransform="matrix(0.8755 0 0 -1.1237 -16.3538 425.2069)">
		<stop  offset="0" style="stop-color:#C7AE8E"/>
		<stop  offset="0.2306" style="stop-color:#C7AE8E"/>
		<stop  offset="0.2306" style="stop-color:#DAC197"/>
		<stop  offset="1" style="stop-color:#DAC197"/>
	</linearGradient>
	<path id="path83" inkscape:connector-curvature="0" fill="url(#path83_1_)" d="M133.765,182.02h20.142
		c1.176,0,1.705-0.207,2.043,0.722l2.05,5.773v18.527c0,1.121,0.07,0.949-1.106,0.949h-25.786c-1.176,0-1.105,0.172-1.105-0.949
		v-18.527l2.05-5.773C132.378,181.832,132.589,182.02,133.765,182.02z"/>
	
		<linearGradient id="path87_1_" gradientUnits="userSpaceOnUse" x1="264.2432" y1="79.106" x2="264.2432" y2="93.106" gradientTransform="matrix(0.7 0 0 -0.8245 -40.97 258.7809)">
		<stop  offset="0" style="stop-color:#FFFFFF"/>
		<stop  offset="0.302" style="stop-color:#FFFFFF"/>
		<stop  offset="0.344" style="stop-color:#FFFFFF;stop-opacity:0.643"/>
		<stop  offset="1" style="stop-color:#FFFFFF;stop-opacity:0.391"/>
	</linearGradient>
	<path id="path87" inkscape:connector-curvature="0" opacity="0.3" fill="url(#path87_1_)" enable-background="new    " d="
		M142.6,182.012h2.8v11.543c-0.276,0-0.551-0.636-0.827-0.636c-0.282,0-0.564,0.636-0.847,0.636c-0.227,0-0.454-0.557-0.681-0.557
		c-0.148,0-0.297,0.557-0.445,0.557V182.012z"/>
	<rect id="rect7379" x="138" y="199" fill="#3465A4" width="18" height="8"/>
	<g id="text923_1_">
		<path fill="#FFFFFF" d="M142.956,204.773v-1.332h-1.096v-0.551h1.76v2.129c-0.259,0.184-0.544,0.322-0.856,0.416
			s-0.646,0.141-1,0.141c-0.775,0-1.381-0.226-1.818-0.678c-0.437-0.453-0.656-1.084-0.656-1.892c0-0.81,0.219-1.441,0.656-1.894
			c0.437-0.453,1.043-0.68,1.818-0.68c0.323,0,0.63,0.04,0.921,0.119c0.291,0.08,0.56,0.197,0.805,0.353v0.714
			c-0.248-0.211-0.511-0.369-0.79-0.475c-0.279-0.106-0.572-0.16-0.88-0.16c-0.607,0-1.062,0.17-1.367,0.508
			c-0.304,0.34-0.457,0.844-0.457,1.515c0,0.669,0.152,1.172,0.457,1.511c0.305,0.339,0.76,0.508,1.367,0.508
			c0.237,0,0.448-0.02,0.634-0.061C142.641,204.924,142.808,204.859,142.956,204.773z"/>
		<path fill="#FFFFFF" d="M144.561,200.523h3.894v0.512l-3.134,3.881h3.211v0.564h-4.047v-0.512l3.134-3.881h-3.058V200.523z"/>
		<path fill="#FFFFFF" d="M149.504,200.523h0.671v4.957h-0.671V200.523z"/>
		<path fill="#FFFFFF" d="M151.509,200.523h1.516c0.555,0,0.975,0.125,1.26,0.377c0.283,0.251,0.426,0.619,0.426,1.104
			c0,0.489-0.143,0.859-0.426,1.109c-0.285,0.25-0.705,0.375-1.26,0.375h-0.844v1.992h-0.672V200.523z M152.181,201.074v1.863h0.844
			c0.311,0,0.553-0.081,0.723-0.242c0.172-0.162,0.256-0.393,0.256-0.691c0-0.297-0.084-0.525-0.256-0.688
			c-0.17-0.161-0.412-0.242-0.723-0.242H152.181z"/>
	</g>
</g>
</svg>
