<?xml version="1.0" encoding="utf-8"?>
<!-- Generator: Adobe Illustrator 16.0.0, SVG Export Plug-In . SVG Version: 6.00 Build 0)  -->
<!DOCTYPE svg PUBLIC "-//W3C//DTD SVG 1.1//EN" "http://www.w3.org/Graphics/SVG/1.1/DTD/svg11.dtd">
<svg version="1.1"
	 id="svg97" inkscape:version="1.0 (4035a4fb49, 2020-05-01)" sodipodi:docname="application-x-xz-compressed-tar.svg" xmlns:dc="http://purl.org/dc/elements/1.1/" xmlns:cc="http://creativecommons.org/ns#" xmlns:rdf="http://www.w3.org/1999/02/22-rdf-syntax-ns#" xmlns:svg="http://www.w3.org/2000/svg" xmlns:sodipodi="http://sodipodi.sourceforge.net/DTD/sodipodi-0.dtd" xmlns:inkscape="http://www.inkscape.org/namespaces/inkscape"
	 xmlns="http://www.w3.org/2000/svg" xmlns:xlink="http://www.w3.org/1999/xlink" x="0px" y="0px" width="32px" height="32px"
	 viewBox="0 0 32 32" enable-background="new 0 0 32 32" xml:space="preserve">
<sodipodi:namedview  inkscape:current-layer="g95" inkscape:window-maximized="1" inkscape:window-y="0" inkscape:window-x="0" inkscape:window-height="1003" inkscape:window-width="1920" inkscape:pageshadow="2" inkscape:pageopacity="0" inkscape:document-rotation="0" inkscape:cy="15.01543" inkscape:cx="33.106941" inkscape:zoom="19.666667" showgrid="false" guidetolerance="10" gridtolerance="10" pagecolor="#ffffff" bordercolor="#666666" borderopacity="1" objecttolerance="10" id="namedview99">
	</sodipodi:namedview>
<title  id="title2">elementary Icon Template</title>
<g id="g95" transform="translate(-128,-179)">
	<path id="path83-5" inkscape:connector-curvature="0" opacity="0.2" enable-background="new    " d="M133.765,183.02h20.142
		c1.176,0,1.705-0.207,2.043,0.722l2.05,5.773v18.527c0,1.121,0.07,0.949-1.106,0.949h-25.786c-1.176,0-1.105,0.172-1.105-0.949
		v-18.527l2.05-5.773C132.378,182.832,132.589,183.02,133.765,183.02z"/>
	
		<linearGradient id="path83_1_" gradientUnits="userSpaceOnUse" x1="183.1426" y1="215.752" x2="183.154" y2="193.232" gradientTransform="matrix(0.8755 0 0 -1.1237 -16.3538 425.2069)">
		<stop  offset="0" style="stop-color:#C7AE8E"/>
		<stop  offset="0.2306" style="stop-color:#C7AE8E"/>
		<stop  offset="0.2306" style="stop-color:#DAC197"/>
		<stop  offset="1" style="stop-color:#DAC197"/>
	</linearGradient>
	<path id="path83" inkscape:connector-curvature="0" fill="url(#path83_1_)" d="M133.765,182.02h20.142
		c1.176,0,1.705-0.207,2.043,0.722l2.05,5.773v18.527c0,1.121,0.07,0.949-1.106,0.949h-25.786c-1.176,0-1.105,0.172-1.105-0.949
		v-18.527l2.05-5.773C132.378,181.832,132.589,182.02,133.765,182.02z"/>
	
		<linearGradient id="path87_1_" gradientUnits="userSpaceOnUse" x1="264.2432" y1="79.106" x2="264.2432" y2="93.106" gradientTransform="matrix(0.7 0 0 -0.8245 -40.97 258.7809)">
		<stop  offset="0" style="stop-color:#FFFFFF"/>
		<stop  offset="0.302" style="stop-color:#FFFFFF"/>
		<stop  offset="0.344" style="stop-color:#FFFFFF;stop-opacity:0.643"/>
		<stop  offset="1" style="stop-color:#FFFFFF;stop-opacity:0.391"/>
	</linearGradient>
	<path id="path87" inkscape:connector-curvature="0" opacity="0.3" fill="url(#path87_1_)" enable-background="new    " d="
		M142.6,182.012h2.8v11.543c-0.276,0-0.551-0.636-0.827-0.636c-0.282,0-0.564,0.636-0.847,0.636c-0.227,0-0.454-0.557-0.681-0.557
		c-0.148,0-0.297,0.557-0.445,0.557V182.012z"/>
	<rect id="rect7379" x="138" y="199" fill="#3465A4" width="18" height="8"/>
	<g id="text888" transform="matrix(0.20576019,0,0,0.20576019,100.40199,165.60811)">
		<path id="path896" fill="#FFFFFF" d="M195.746,191.346h4.12v4.96h-4.12V191.346z"/>
		<path id="path898" display="none" fill="#FFFFFF" d="M206.703,167.146h4.238l7.245,10.84l7.285-10.84h4.238l-9.374,14.001
			l10,15.159h-4.238l-8.201-12.402l-8.265,12.402h-4.257l10.411-15.567L206.703,167.146z"/>
		<path id="path900" fill="#FFFFFF" d="M233.834,167.146h22.905v3.009l-18.434,22.829h18.885v3.322h-23.807v-3.009l18.439-22.829
			h-17.988V167.146z"/>
	</g>
</g>
<polygon fill="#FFFFFF" points="14.938,21 19.65,21 19.65,21.619 16.375,27 15.438,27 18.639,21.684 14.938,21.684 "/>
</svg>
