<?xml version="1.0" encoding="utf-8"?>
<!-- Generator: Adobe Illustrator 16.0.0, SVG Export Plug-In . SVG Version: 6.00 Build 0)  -->
<!DOCTYPE svg PUBLIC "-//W3C//DTD SVG 1.1//EN" "http://www.w3.org/Graphics/SVG/1.1/DTD/svg11.dtd">
<svg version="1.1"
	 id="svg97" sodipodi:docname="application-vnd.android.package-archive.svg" inkscape:version="0.92.5 (2060ec1f9f, 2020-04-08)" xmlns:inkscape="http://www.inkscape.org/namespaces/inkscape" xmlns:sodipodi="http://sodipodi.sourceforge.net/DTD/sodipodi-0.dtd" xmlns:svg="http://www.w3.org/2000/svg" xmlns:rdf="http://www.w3.org/1999/02/22-rdf-syntax-ns#" xmlns:cc="http://creativecommons.org/ns#" xmlns:dc="http://purl.org/dc/elements/1.1/"
	 xmlns="http://www.w3.org/2000/svg" xmlns:xlink="http://www.w3.org/1999/xlink" x="0px" y="0px" width="32px" height="32px"
	 viewBox="0 0 32 32" enable-background="new 0 0 32 32" xml:space="preserve">
<sodipodi:namedview  inkscape:current-layer="g95" inkscape:window-maximized="1" inkscape:window-y="25" inkscape:window-x="0" inkscape:window-height="1021" inkscape:window-width="1920" inkscape:pageshadow="2" inkscape:pageopacity="0" id="namedview99" objecttolerance="10" borderopacity="1" bordercolor="#666666" pagecolor="#ffffff" gridtolerance="10" guidetolerance="10" showgrid="false" inkscape:zoom="19.666667" inkscape:cx="10.35745" inkscape:cy="19.797312">
	</sodipodi:namedview>
<title  id="title2">elementary Icon Template</title>
<g id="g95" transform="translate(-128,-179)">
	<path id="path83-5" inkscape:connector-curvature="0" opacity="0.2" enable-background="new    " d="M133.765,183.02h20.142
		c1.176,0,1.705-0.207,2.043,0.722l2.05,5.773v18.527c0,1.121,0.07,0.949-1.106,0.949h-25.786c-1.176,0-1.105,0.172-1.105-0.949
		v-18.527l2.05-5.773C132.378,182.832,132.589,183.02,133.765,183.02z"/>
	
		<linearGradient id="path83_1_" gradientUnits="userSpaceOnUse" x1="183.1426" y1="215.752" x2="183.154" y2="193.232" gradientTransform="matrix(0.8755 0 0 -1.1237 -16.3538 425.2069)">
		<stop  offset="0" style="stop-color:#C7AE8E"/>
		<stop  offset="0.2306" style="stop-color:#C7AE8E"/>
		<stop  offset="0.2306" style="stop-color:#DAC197"/>
		<stop  offset="1" style="stop-color:#DAC197"/>
	</linearGradient>
	<path id="path83" inkscape:connector-curvature="0" fill="url(#path83_1_)" d="M133.765,182.02h20.142
		c1.176,0,1.705-0.207,2.043,0.722l2.05,5.773v18.527c0,1.121,0.07,0.949-1.106,0.949h-25.786c-1.176,0-1.105,0.172-1.105-0.949
		v-18.527l2.05-5.773C132.378,181.832,132.589,182.02,133.765,182.02z"/>
	
		<linearGradient id="path87_1_" gradientUnits="userSpaceOnUse" x1="264.2432" y1="79.106" x2="264.2432" y2="93.106" gradientTransform="matrix(0.7 0 0 -0.8245 -40.97 258.7809)">
		<stop  offset="0" style="stop-color:#FFFFFF"/>
		<stop  offset="0.302" style="stop-color:#FFFFFF"/>
		<stop  offset="0.344" style="stop-color:#FFFFFF;stop-opacity:0.643"/>
		<stop  offset="1" style="stop-color:#FFFFFF;stop-opacity:0.391"/>
	</linearGradient>
	<path id="path87" inkscape:connector-curvature="0" opacity="0.3" fill="url(#path87_1_)" enable-background="new    " d="
		M142.6,182.012h2.8v11.543c-0.276,0-0.551-0.636-0.827-0.636c-0.282,0-0.564,0.636-0.847,0.636c-0.227,0-0.454-0.557-0.681-0.557
		c-0.148,0-0.297,0.557-0.445,0.557V182.012z"/>
	<path id="path5" fill="#FDFEFB" d="M149,194.5c-0.549,1.346-0.88,2.225-1.49,3.527c0.374,0.397,0.834,0.859,1.58,1.381
		c-0.803-0.332-1.349-0.66-1.759-1.004c-0.781,1.629-2.004,3.951-4.49,8.414c1.953-1.128,3.092-1.821,4.502-2.088
		c-0.061-0.261-0.095-0.541-0.091-0.835v-0.063c0.031-1.252,1.07-2.293,1.828-2.293c0.757-0.003,1.713,1.277,1.681,2.528
		c-0.005,0.235-0.032,0.462-0.078,0.671c1.396,0.273,2.549,0.968,4.476,2.079c-0.38-0.699-0.72-1.33-1.044-1.929
		c-0.509-0.396-1.04-0.91-2.125-1.467c0.744,0.193,1.279,0.417,1.696,0.667C150.394,197.963,150.127,197.148,149,194.5L149,194.5z"
		/>
</g>
</svg>
