<?xml version="1.0" encoding="utf-8"?>
<!-- Generator: Adobe Illustrator 16.0.0, SVG Export Plug-In . SVG Version: 6.00 Build 0)  -->
<!DOCTYPE svg PUBLIC "-//W3C//DTD SVG 1.0//EN" "http://www.w3.org/TR/2001/REC-SVG-20010904/DTD/svg10.dtd">
<svg version="1.0"
	 id="svg2" xmlns:dc="http://purl.org/dc/elements/1.1/" xmlns:cc="http://creativecommons.org/ns#" xmlns:rdf="http://www.w3.org/1999/02/22-rdf-syntax-ns#" xmlns:svg="http://www.w3.org/2000/svg" xmlns:sodipodi="http://sodipodi.sourceforge.net/DTD/sodipodi-0.dtd" xmlns:inkscape="http://www.inkscape.org/namespaces/inkscape" sodipodi:docname="text-x-ruby.svg" inkscape:version="1.0 (4035a4fb49, 2020-05-01)"
	 xmlns="http://www.w3.org/2000/svg" xmlns:xlink="http://www.w3.org/1999/xlink" x="0px" y="0px" width="32px" height="32px"
	 viewBox="0 0 32 32" enable-background="new 0 0 32 32" xml:space="preserve">
<filter  style="color-interpolation-filters:sRGB" width="1.00104" height="1.0008914" id="filter1218" x="-0.00052002415" y="-0.00044569655" inkscape:collect="always">
	<feGaussianBlur  stdDeviation="0.0051997931" id="feGaussianBlur1220" inkscape:collect="always"></feGaussianBlur>
</filter>
<sodipodi:namedview  pagecolor="#ffffff" bordercolor="#666666" borderopacity="1" objecttolerance="10" gridtolerance="10" guidetolerance="10" showgrid="false" inkscape:zoom="14.75" inkscape:cx="9.6653037" inkscape:cy="2.9918193" id="namedview47" inkscape:pageopacity="0" inkscape:pageshadow="2" inkscape:window-y="0" inkscape:current-layer="svg2" inkscape:window-width="1920" inkscape:document-rotation="0" inkscape:window-height="1003" inkscape:window-x="0" inkscape:window-maximized="1">
	</sodipodi:namedview>
<g id="rect4897-1" opacity="0.2" filter="url(#filter1218)" enable-background="new    ">
	<rect x="4.001" y="2.752" width="23.998" height="28"/>
</g>
<rect id="rect4897" x="4" y="2" fill="#EEEEEE" width="24" height="28"/>
<g id="text1723" transform="matrix(0.33382233,0,0,0.33382233,8.4975343,24.197799)" opacity="0">
	<path id="path1725" d="M11.868-20.672L6.518-6.16h10.722L11.868-20.672z M9.642-24.557h4.473L25.23,4.603h-4.103l-2.656-7.48H5.326
		l-2.656,7.48h-4.16L9.642-24.557z"/>
	<path id="path1727" d="M39.272-6.394c-2.905,0-4.915,0.331-6.038,0.998c-1.117,0.661-1.679,1.796-1.679,3.399
		c0,1.275,0.418,2.288,1.252,3.045c0.845,0.74,1.992,1.115,3.437,1.115c1.992,0,3.586-0.705,4.783-2.112
		c1.211-1.419,1.82-3.3,1.82-5.643v-0.802H39.272z M46.439-7.877v12.48h-3.592v-3.32c-0.822,1.328-1.843,2.311-3.066,2.949
		c-1.226,0.626-2.724,0.939-4.493,0.939c-2.241,0-4.025-0.626-5.354-1.878c-1.313-1.261-1.972-2.949-1.972-5.055
		c0-2.463,0.819-4.318,2.463-5.57c1.65-1.246,4.113-1.872,7.381-1.872h5.04v-0.351c0-1.656-0.55-2.931-1.644-3.829
		c-1.077-0.91-2.604-1.366-4.569-1.366c-1.249,0-2.466,0.149-3.651,0.448c-1.185,0.301-2.323,0.749-3.417,1.349v-3.32
		c1.313-0.509,2.592-0.886,3.826-1.132c1.237-0.263,2.44-0.392,3.616-0.392c3.162,0,5.523,0.819,7.088,2.463
		C45.658-13.698,46.439-11.212,46.439-7.877z"/>
</g>
<path fill="#19979D" d="M11.205,11.324c-0.595,0-1.185,0.119-1.733,0.35c-0.551,0.231-1.052,0.575-1.478,1.008
	C7.572,13.115,7.232,13.631,7,14.199c-0.232,0.569-0.349,1.181-0.349,1.798c0,0.618,0.118,1.23,0.349,1.8
	c0.231,0.565,0.572,1.083,0.993,1.514c0.426,0.434,0.927,0.772,1.478,1.006c0.537,0.227,1.112,0.344,1.692,0.351
	c0.013,0,0.026,0.002,0.042,0.002c1.408,0.067,2.542-0.492,3.373-1.305c0.568-0.556,1.016-1.211,1.422-1.88
	c0.407,0.669,0.854,1.324,1.422,1.88c0.83,0.813,1.965,1.372,3.377,1.305c0.012,0,0.024-0.002,0.038-0.002
	c0.579-0.004,1.154-0.124,1.69-0.351c0.551-0.233,1.054-0.572,1.479-1.006l0.002-0.005c0.424-0.434,0.762-0.946,0.993-1.509
	c0.229-0.57,0.346-1.183,0.346-1.8c0-0.617-0.116-1.229-0.346-1.798l-0.007-0.009c-0.229-0.565-0.568-1.079-0.988-1.507
	c-0.425-0.433-0.928-0.777-1.479-1.006c-0.548-0.233-1.139-0.353-1.729-0.353c-1.487,0-2.658,0.61-3.524,1.459
	c-0.498,0.489-0.906,1.051-1.272,1.624c-0.37-0.573-0.778-1.133-1.276-1.624C13.861,11.934,12.688,11.324,11.205,11.324
	L11.205,11.324z M11.374,13.196c1.056,0,1.729,0.353,2.346,0.944c0.49,0.468,0.92,1.104,1.345,1.8
	c-0.485,0.81-0.956,1.552-1.483,2.053c-0.583,0.554-1.184,0.857-2.169,0.806h-0.038c-0.375,0-0.754-0.075-1.101-0.219
	c-0.341-0.14-0.655-0.347-0.917-0.604l-0.01-0.008c-0.264-0.261-0.476-0.573-0.614-0.91c-0.138-0.334-0.21-0.699-0.21-1.061
	c0-0.361,0.07-0.727,0.21-1.063c0.14-0.335,0.352-0.646,0.614-0.906l0.01-0.009c0.261-0.257,0.575-0.464,0.916-0.605
	C10.618,13.27,10.998,13.196,11.374,13.196L11.374,13.196z M20.625,13.196c0.376,0,0.755,0.073,1.102,0.217
	c0.341,0.14,0.653,0.347,0.916,0.603l0.01,0.01c0.264,0.26,0.473,0.572,0.614,0.906c0.14,0.335,0.21,0.702,0.21,1.062
	c0,0.361-0.07,0.727-0.21,1.064c-0.138,0.335-0.351,0.646-0.614,0.907l-0.01,0.011c-0.261,0.253-0.575,0.464-0.916,0.604
	c-0.343,0.144-0.726,0.217-1.102,0.217h-0.038c-0.984,0.054-1.586-0.25-2.169-0.804c-0.526-0.501-0.999-1.243-1.485-2.055
	c0.427-0.693,0.856-1.329,1.346-1.798C18.899,13.549,19.572,13.194,20.625,13.196L20.625,13.196z M19.74,14.129v0.937h-0.938v1.869
	h0.938v0.937h1.868v-0.937h0.937v-1.871h-0.937v-0.935H19.74z M9.455,15.064v1.871h3.74v-1.871H9.455z"/>
</svg>
