<?xml version="1.0" encoding="utf-8"?>
<!-- Generator: Adobe Illustrator 16.0.0, SVG Export Plug-In . SVG Version: 6.00 Build 0)  -->
<!DOCTYPE svg PUBLIC "-//W3C//DTD SVG 1.1//EN" "http://www.w3.org/Graphics/SVG/1.1/DTD/svg11.dtd">
<svg version="1.1"
	 id="svg2" sodipodi:docname="text-html.svg" inkscape:version="1.0 (4035a4fb49, 2020-05-01)" xmlns:dc="http://purl.org/dc/elements/1.1/" xmlns:cc="http://creativecommons.org/ns#" xmlns:rdf="http://www.w3.org/1999/02/22-rdf-syntax-ns#" xmlns:svg="http://www.w3.org/2000/svg" xmlns:sodipodi="http://sodipodi.sourceforge.net/DTD/sodipodi-0.dtd" xmlns:inkscape="http://www.inkscape.org/namespaces/inkscape"
	 xmlns="http://www.w3.org/2000/svg" xmlns:xlink="http://www.w3.org/1999/xlink" x="0px" y="0px" width="32px" height="32px"
	 viewBox="0 0 32 32" enable-background="new 0 0 32 32" xml:space="preserve">
<filter  height="1.0008914" width="1.00104" style="color-interpolation-filters:sRGB" inkscape:collect="always" id="filter1218" x="-0.00052002415" y="-0.00044569655">
	<feGaussianBlur  inkscape:collect="always" stdDeviation="0.0051997931" id="feGaussianBlur1220"></feGaussianBlur>
</filter>
<sodipodi:namedview  inkscape:pageshadow="2" inkscape:window-width="1920" inkscape:window-height="1003" inkscape:current-layer="svg2" inkscape:window-x="0" inkscape:document-rotation="0" inkscape:pageopacity="0" inkscape:window-y="0" inkscape:window-maximized="1" pagecolor="#ffffff" bordercolor="#666666" borderopacity="1" objecttolerance="10" gridtolerance="10" guidetolerance="10" showgrid="false" inkscape:zoom="20.85965" inkscape:cx="6.4418573" inkscape:cy="15.340611" id="namedview47">
	</sodipodi:namedview>
<g id="rect4897-1" opacity="0.2" filter="url(#filter1218)" enable-background="new    ">
	<rect x="4.001" y="2.752" width="23.998" height="28"/>
</g>
<rect id="rect4897" x="4" y="2" fill="#EEEEEE" width="24" height="28"/>
<path id="path3475" inkscape:connector-curvature="0" opacity="0.4" fill="none" stroke="#000000" stroke-width="0.4834" enable-background="new    " d="
	M8,6.242h1.507H8z M9.729,6.242h1.407H9.729z M11.357,6.242h1.246H11.357z M12.804,6.242h0.542H12.804z M13.568,6.242h1.206H13.568z
	 M15.015,6.242h3.176H15.015z M18.393,6.242h2.434H18.393z M21.025,6.242h0.744H21.025z M8,7.706h2.352H8z M10.613,7.706h1.125
	H10.613z M11.94,7.706h0.563H11.94z M12.724,7.706h1.025H12.724z M13.97,7.706h1.045H13.97z M15.216,7.706h1.668H15.216z
	 M17.105,7.706h2.17H17.105z M19.479,7.706h1.446H19.479z M21.125,7.706h0.361H21.125z M8,9.159h1.99H8z M10.191,9.159h3.256H10.191
	z M13.648,9.159h1.588H13.648z M15.437,9.159h1.488H15.437z M17.125,9.159h1.268H17.125z M18.593,9.159l1.99,0.021L18.593,9.159z
	 M20.764,9.18H24H20.764z M8,10.633h2.754H8z M10.975,10.633h2.975H10.975z M14.151,10.633h1.186H14.151z M15.538,10.633h2.794
	H15.538z M18.514,10.633h1.908H18.514z M20.643,10.633h0.767H20.643z M21.607,10.633h0.422H21.607z M22.252,10.633h1.186H22.252z
	 M8,12.097h1.025H8z M9.347,12.097h3.799H9.347z M8,14.536h1.507H8z M9.729,14.536h1.387H9.729z M11.357,14.536h1.246H11.357z
	 M12.804,14.536h0.542H12.804z M13.568,14.536h1.206H13.568z M15.015,14.536h3.156H15.015z M18.393,14.536h2.412H18.393z
	 M21.005,14.536h0.765H21.005z M21.971,14.536h1.809H21.971z M8,16h2.533H8z M10.734,16h2.713H10.734z M13.648,16h1.045H13.648z
	 M14.895,16h2.553H14.895z M17.648,16h3.215H17.648z M21.086,16h1.186H21.086z M8,17.464h2.754H8z M10.975,17.464h2.975H10.975z
	 M14.151,17.464h1.186H14.151z M15.538,17.464h2.794H15.538z M18.514,17.464h1.908H18.514z M20.643,17.464h0.767H20.643z
	 M21.607,17.464h0.422H21.607z M22.252,17.464h1.186H22.252z M8,18.928h2.352H8z M10.613,18.928h1.125H10.613z M11.94,18.928h0.563
	H11.94z M12.724,18.928h1.025H12.724z M13.97,18.928h1.045H13.97z M15.216,18.928h1.668H15.216z M17.105,18.928h2.17H17.105z
	 M19.479,18.928h1.446H19.479z M21.125,18.928h0.361H21.125z M8,21.357h1.99H8z M10.191,21.357h3.256H10.191z M13.648,21.357h1.588
	H13.648z M15.437,21.357h1.488H15.437z M17.125,21.357h1.268H17.125z M18.593,21.357l1.99,0.02L18.593,21.357z M20.764,21.377H24
	H20.764z M8,22.831h2.352H8z M10.613,22.831h1.125H10.613z M11.94,22.831h0.563H11.94z M12.724,22.831h1.025H12.724z M13.97,22.831
	h1.045H13.97z M15.216,22.831h1.668H15.216z M17.105,22.831h2.17H17.105z M19.479,22.831h1.446H19.479z M21.125,22.831h0.361H21.125
	z M8,24.295h2.493H8z M10.713,24.295h0.784H10.713z M11.699,24.295h1.789H11.699z M13.688,24.295h2.633H13.688z M16.543,24.295
	h1.789H16.543z M18.514,24.295h0.381H18.514z M19.096,24.295h2.271H19.096z M21.607,24.295h1.187H21.607z M8,25.758h2.493H8z
	 M10.713,25.758h1.126H10.713z M12.04,25.758h1.769H12.04z M14.01,25.758h1.909H14.01z M16.141,25.758h0.763H16.141z M17.105,25.758
	h0.422H17.105z M17.748,25.758h1.188H17.748z"/>
<rect id="rect7379" y="6" fill="#666666" width="18" height="8"/>
<g id="test854">
	<path fill="#FFFFFF" d="M1.745,7.775H2.42l1.291,1.912l1.28-1.912h0.676l-1.644,2.434v2.215H3.39v-2.215L1.745,7.775z"/>
	<path fill="#FFFFFF" d="M8.229,10.434v1.991H7.656v-0.53c-0.131,0.212-0.294,0.368-0.489,0.469
		c-0.195,0.101-0.434,0.151-0.716,0.151c-0.357,0-0.641-0.1-0.852-0.3c-0.211-0.201-0.316-0.469-0.316-0.805
		c0-0.393,0.131-0.688,0.394-0.888c0.262-0.199,0.654-0.298,1.176-0.298h0.803v-0.056c0-0.264-0.086-0.468-0.26-0.612
		C7.222,9.41,6.979,9.337,6.666,9.337c-0.2,0-0.395,0.024-0.583,0.072C5.894,9.457,5.712,9.528,5.538,9.624V9.095
		c0.21-0.082,0.414-0.142,0.611-0.183c0.197-0.04,0.389-0.061,0.576-0.061c0.504,0,0.881,0.131,1.13,0.393
		C8.104,9.506,8.229,9.902,8.229,10.434z M7.086,10.67c-0.463,0-0.784,0.053-0.962,0.159c-0.179,0.106-0.268,0.287-0.268,0.542
		c0,0.204,0.066,0.365,0.201,0.485c0.134,0.119,0.316,0.179,0.546,0.179c0.317,0,0.572-0.113,0.765-0.338
		c0.192-0.225,0.288-0.524,0.288-0.898V10.67H7.086z"/>
	<path fill="#FFFFFF" d="M11.874,9.606c0.144-0.258,0.315-0.448,0.515-0.57c0.199-0.123,0.434-0.184,0.704-0.184
		c0.363,0,0.644,0.128,0.841,0.382c0.197,0.254,0.296,0.616,0.296,1.085v2.105h-0.576v-2.087c0-0.334-0.059-0.582-0.177-0.744
		c-0.119-0.163-0.299-0.244-0.542-0.244c-0.297,0-0.531,0.099-0.704,0.296c-0.172,0.197-0.259,0.466-0.259,0.807v1.972h-0.576
		v-2.087c0-0.336-0.06-0.585-0.178-0.746C11.099,9.43,10.916,9.35,10.668,9.35c-0.292,0-0.525,0.099-0.697,0.297
		c-0.173,0.198-0.258,0.467-0.258,0.805v1.972H9.136V8.936h0.577v0.542c0.13-0.213,0.288-0.372,0.47-0.473
		c0.182-0.102,0.399-0.153,0.651-0.153c0.253,0,0.469,0.064,0.646,0.194C11.658,9.173,11.789,9.36,11.874,9.606z"/>
	<path fill="#FFFFFF" d="M15.308,7.578h0.573v4.846h-0.573V7.578z"/>
</g>
</svg>
